<?xml version="1.0" encoding="UTF-8"?>
<svg version="1.1" xmlns="http://www.w3.org/2000/svg" width="640" height="640">
<path d="M0 0 C1.16819275 -0.00073517 2.3363855 -0.00147034 3.53997803 -0.00222778 C23.00040286 0.02985331 41.47123936 1.24636187 60.5 5.4375 C61.68045898 5.69450684 62.86091797 5.95151367 64.07714844 6.21630859 C95.88155195 13.36242905 127.21329387 25.4224212 154.5 43.4375 C155.58837158 44.1480957 155.58837158 44.1480957 156.69873047 44.87304688 C173.16777051 55.68202578 188.32321607 67.76672859 202.5 81.4375 C203.37833496 82.28296387 203.37833496 82.28296387 204.27441406 83.14550781 C211.8909505 90.51779402 219.00359381 98.04086531 225.5 106.4375 C226.29792969 107.44167969 227.09585938 108.44585937 227.91796875 109.48046875 C234.24641601 117.49461114 240.03349262 125.81409536 245.5 134.4375 C246.10279785 135.38737793 246.10279785 135.38737793 246.71777344 136.35644531 C254.74556887 149.15822384 261.22946635 162.70619251 267.5 176.4375 C267.82484375 177.14583984 268.1496875 177.85417969 268.484375 178.58398438 C279.89352876 203.90477138 285.34877595 231.99634211 288.5 259.4375 C288.59788818 260.27104004 288.69577637 261.10458008 288.79663086 261.96337891 C289.66512018 270.23610769 289.69985957 278.50446529 289.6875 286.8125 C289.68659363 287.93949814 289.68659363 287.93949814 289.68566895 289.08926392 C289.65908272 301.29996116 289.24188484 313.33424037 287.5 325.4375 C287.37109375 326.3337207 287.2421875 327.22994141 287.109375 328.15332031 C279.66277311 377.98694544 260.7429659 424.73914409 229.5 464.4375 C228.85933594 465.27023437 228.21867188 466.10296875 227.55859375 466.9609375 C213.20303495 485.34765322 196.30162657 502.62500284 177.5 516.4375 C176.04980469 517.56285156 176.04980469 517.56285156 174.5703125 518.7109375 C125.47878172 556.62716046 63.96972165 576.71925952 2.125 576.625 C0.93213882 576.62359512 0.93213882 576.62359512 -0.28482056 576.62216187 C-21.94616641 576.56701075 -42.35233013 574.26053526 -63.5 569.4375 C-64.47614258 569.21578125 -65.45228516 568.9940625 -66.45800781 568.765625 C-106.33629001 559.50600362 -144.60553077 541.15884615 -176.5 515.4375 C-177.27214844 514.83808594 -178.04429687 514.23867188 -178.83984375 513.62109375 C-195.18811165 500.83690321 -210.85672483 485.9087564 -223.5 469.4375 C-224.50167131 468.17504054 -225.50435222 466.91338173 -226.5078125 465.65234375 C-256.5011768 427.63049802 -275.34990249 383.03592025 -283.5 335.4375 C-283.62634827 334.76193054 -283.75269653 334.08636108 -283.88287354 333.39031982 C-286.48166743 319.41972616 -286.96667232 305.72034567 -286.89111328 291.52880859 C-286.87502017 287.94199611 -286.89105941 284.35631001 -286.91015625 280.76953125 C-286.92286357 267.0358164 -286.01488719 253.93460036 -283.5 240.4375 C-283.30664062 239.29313477 -283.11328125 238.14876953 -282.9140625 236.96972656 C-273.87140006 184.05655331 -249.63563425 136.63821051 -214.5 96.4375 C-213.39591797 95.16519531 -213.39591797 95.16519531 -212.26953125 93.8671875 C-202.81300633 83.15323759 -192.79709411 73.20474292 -181.5 64.4375 C-180.26921034 63.45482888 -179.03876439 62.47172718 -177.80859375 61.48828125 C-142.33372625 33.4297923 -101.63715671 14.8974613 -57.5 5.4375 C-56.81115723 5.28442383 -56.12231445 5.13134766 -55.41259766 4.97363281 C-36.94648734 0.87005274 -18.84826585 -0.0051661 0 0 Z " fill="#234E79" transform="translate(319.5,32.5625)"/>
<path d="M0 0 C21.78 0 43.56 0 66 0 C68.44689479 6.11723697 70.77631977 12.05810224 72.7265625 18.31640625 C73.07719254 19.4284568 73.07719254 19.4284568 73.43490601 20.56297302 C73.92238171 22.11258998 74.4079369 23.66281236 74.89160156 25.21362305 C75.62511896 27.56288099 76.36682848 29.90944176 77.109375 32.25585938 C77.58642911 33.77588747 78.06300781 35.29606486 78.5390625 36.81640625 C78.75680328 37.50416641 78.97454407 38.19192657 79.19888306 38.90052795 C80.75747859 43.92442437 81.84899582 48.82048121 83 54 C172.43 54 261.86 54 354 54 C353.67 59.61 353.34 65.22 353 71 C352.76890289 75.20950578 352.54045502 79.41903386 352.31640625 83.62890625 C352.19224773 85.92514051 352.0678925 88.22136415 351.94335938 90.51757812 C351.75303446 94.02896321 351.56367132 97.54038418 351.37768555 101.05200195 C350.68046751 114.19017545 349.85886558 127.29717328 348.70643616 140.40370178 C347.88368616 149.9248417 347.40131547 159.45291631 347 169 C327.17986724 172.4153207 307.35807312 175.8116145 287.5 179 C273.89564807 181.18487773 260.3106993 183.46856076 246.73226929 185.80895996 C236.1641516 187.62917397 225.58987455 189.40357886 215.00390625 191.1171875 C213.90523224 191.29522919 212.80655823 191.47327087 211.67459106 191.65670776 C206.30700539 192.52561004 200.938713 193.38979768 195.56933594 194.24755859 C186.35951958 195.72820501 177.23243973 197.30616264 168.12817383 199.34326172 C162.7697919 200.46821664 157.35909621 201.18999818 151.9375 201.9375 C141.72717109 203.39459828 131.61264382 205.1153884 121.5 207.13671875 C117.7022536 207.88974761 113.90190754 208.43404828 110.0625 208.9375 C104.12920317 209.92497614 101.33480058 211.76945832 97.7578125 216.71875 C94.50113461 222.19895279 94.05758011 227.75646821 95 234 C96.09081783 236.90101121 97.4317326 239.30454041 99 242 C99 242.66 99 243.32 99 244 C101.87711078 245.63117373 103.94066427 246.25137995 107.24036026 246.26171303 C108.08433939 246.26917852 108.92831852 246.27664401 109.79787278 246.28433573 C110.72004901 246.282401 111.64222523 246.28046626 112.59234619 246.2784729 C114.06755159 246.2871615 114.06755159 246.2871615 115.57255912 246.29602563 C118.87685623 246.31306732 122.18101402 246.31590575 125.48535156 246.31884766 C127.85044702 246.32814295 130.21553919 246.33831101 132.58062744 246.34928894 C139.0099306 246.37664796 145.43921178 246.39175585 151.86855793 246.40471697 C157.90430732 246.41779711 163.94001678 246.4418799 169.97573444 246.46498732 C181.93074454 246.51045897 193.88576471 246.54707223 205.84082031 246.578125 C217.45411956 246.60830902 229.06739416 246.6426586 240.68066406 246.68261719 C241.39649211 246.68507874 242.11232015 246.68754028 242.84983996 246.69007643 C246.44093476 246.702451 250.03202927 246.71490754 253.62312365 246.72740483 C283.4153818 246.83097821 313.2076698 246.91963383 343 247 C343 257.56 343 268.12 343 279 C309.90337407 279.1356892 276.80685537 279.243085 243.71001542 279.30639198 C239.80106125 279.31389606 235.89210763 279.32166201 231.9831543 279.32958984 C231.20496464 279.33116371 230.42677497 279.33273757 229.62500381 279.33435912 C217.03096969 279.36045437 204.43710019 279.40775479 191.84316368 279.46291678 C178.91691864 279.51906134 165.99075972 279.55236016 153.06439775 279.56453097 C145.09050834 279.57275645 137.11708428 279.59871834 129.14333814 279.6474988 C123.02505257 279.68301754 116.90712046 279.68672219 110.78874588 279.67864609 C108.2817454 279.68029607 105.77472722 279.69222208 103.2678318 279.71523285 C99.84152956 279.74513888 96.41720923 279.73788984 92.99085999 279.7215271 C92.00153805 279.73900415 91.01221612 279.7564812 89.99291474 279.77448785 C81.02985852 279.65899122 75.04916516 275.47289769 68.8125 269.25 C57.82558575 257.71701645 54.37187385 244.64742798 54.52954102 229.08398438 C54.91099558 217.21108394 58.236058 208.08546404 66 199 C68.4149904 196.79731645 70.82566136 194.6399297 73.375 192.59375 C75.98416405 188.42912277 74.92540968 184.66739325 74 180 C73.19155802 176.5192633 72.22141749 173.10738092 71.1875 169.6875 C70.93935547 168.83994141 70.69121094 167.99238281 70.43554688 167.11914062 C69.33333565 163.374988 68.20108649 159.64167782 67.03393555 155.91723633 C64.58937159 148.10396341 62.44518543 140.24849703 60.4375 132.3125 C59.85476437 130.01644408 59.27015814 127.72086203 58.68359375 125.42578125 C58.43150146 124.42973877 58.17940918 123.43369629 57.91967773 122.4074707 C57.20064595 119.74340736 56.43886437 117.10918898 55.63891602 114.46923828 C53.69125138 108.02928765 51.89556461 101.5484045 50.09375 95.06640625 C49.72415871 93.73939368 49.35448751 92.41240335 48.98474121 91.08543396 C48.2143225 88.31973725 47.44454295 85.5538638 46.67529297 82.7878418 C45.69792418 79.27350129 44.71944017 75.75947261 43.74053192 72.24556065 C42.79537851 68.85261851 41.85079713 65.4595172 40.90625 62.06640625 C40.55929077 60.8202504 40.21233154 59.57409454 39.8548584 58.29017639 C39.20424319 55.95079118 38.55503419 53.61101426 37.9074707 51.27078247 C37.3073685 49.10784346 36.70182352 46.94640642 36.09057617 44.78659058 C35.81511963 43.80377106 35.53966309 42.82095154 35.25585938 41.80834961 C35.01266968 40.94914413 34.76947998 40.08993866 34.5189209 39.20469666 C34 37 34 37 34 34 C27.07 34 20.14 34 13 34 C11.46958971 30.38894829 9.9394877 26.77776829 8.41015625 23.16625977 C7.63576125 21.3379074 6.86085298 19.50977245 6.0859375 17.68164062 C5.59609375 16.52470703 5.10625 15.36777344 4.6015625 14.17578125 C4.15119629 13.11270752 3.70083008 12.04963379 3.23681641 10.9543457 C2.82866699 9.97941162 2.42051758 9.00447754 2 8 C1.61634277 7.10949951 1.23268555 6.21899902 0.83740234 5.30151367 C0 3 0 3 0 0 Z " fill="#FDFEFD" transform="translate(144,143)"/>
<path d="M0 0 C8.29671117 5.61141858 13.11296211 12.04123634 15.69140625 21.8203125 C16.98594891 31.52365442 15.52726624 39.61288764 9.703125 47.51953125 C5.27130288 52.76270595 1.13992088 56.43505547 -5.30859375 58.8203125 C-6.21609375 59.2328125 -7.12359375 59.6453125 -8.05859375 60.0703125 C-16.87793666 62.10554548 -24.48361519 61.33412249 -32.30859375 56.8203125 C-33.36046875 56.2221875 -34.41234375 55.6240625 -35.49609375 55.0078125 C-42.59567581 49.48591535 -46.43057542 42.92387208 -49.05859375 34.3828125 C-49.14109375 33.5371875 -49.22359375 32.6915625 -49.30859375 31.8203125 C-49.42074219 30.78003906 -49.42074219 30.78003906 -49.53515625 29.71875 C-50.04635315 21.24364346 -47.42830795 14.03511005 -42.39453125 7.234375 C-31.135848 -5.08876558 -14.63385134 -8.3789029 0 0 Z " fill="#FBFCFC" transform="translate(287.30859375,437.1796875)"/>
<path d="M0 0 C8.46691818 5.14410464 14.96611167 11.64863902 17.37890625 21.4453125 C18.63587114 32.76932048 17.48806575 42.44819061 10.37890625 51.6953125 C4.01505246 58.50090885 -5.37721069 62.46266226 -14.62109375 62.8203125 C-22.38024289 62.74760294 -29.73636097 59.83411845 -35.99609375 55.2578125 C-44.02797485 46.6522256 -47.24235602 37.81102017 -46.93359375 26.17578125 C-46.51471216 21.17538224 -45.27543852 17.65908482 -42.62109375 13.4453125 C-42.20859375 12.74921875 -41.79609375 12.053125 -41.37109375 11.3359375 C-32.5516377 -1.99346767 -14.42206218 -6.79523852 0 0 Z " fill="#FBFDFD" transform="translate(458.62109375,435.5546875)"/>
<path d="M0 0 C2 3 2 3 2 10 C90.77 10 179.54 10 271 10 C271 10.33 271 10.66 271 11 C181.9 11 92.8 11 1 11 C0.34 7.7 -0.32 4.4 -1 1 C-0.67 0.67 -0.34 0.34 0 0 Z " fill="#34485E" transform="translate(226,186)"/>
<path d="M0 0 C0.90322432 2.94937955 1.02840714 5.00842551 0.43359375 8.02734375 C0.28051758 8.81012695 0.12744141 9.59291016 -0.03027344 10.39941406 C-0.29372559 11.6557666 -0.29372559 11.6557666 -0.5625 12.9375 C-0.73942383 13.8047168 -0.91634766 14.67193359 -1.09863281 15.56542969 C-3.20517435 25.52070975 -6.05428096 35.26554972 -9 45 C-11 42 -11 42 -11 40 C-10.34 40 -9.68 40 -9 40 C-8.95101562 39.18015625 -8.90203125 38.3603125 -8.8515625 37.515625 C-8.77679687 36.43796875 -8.70203125 35.3603125 -8.625 34.25 C-8.55539062 33.18265625 -8.48578125 32.1153125 -8.4140625 31.015625 C-8 28 -8 28 -6.98632812 26.13671875 C-5.78378502 23.53160557 -5.77141865 21.6579957 -5.8046875 18.796875 C-5.81113281 17.8171875 -5.81757812 16.8375 -5.82421875 15.828125 C-5.84097656 14.81234375 -5.85773437 13.7965625 -5.875 12.75 C-5.88402344 11.71875 -5.89304687 10.6875 -5.90234375 9.625 C-5.92587989 7.08309713 -5.95875977 4.5416672 -6 2 C-3 1 -3 1 0 2 C0 1.34 0 0.68 0 0 Z " fill="#44698C" transform="translate(604,366)"/>
<path d="M0 0 C1.32 0 2.64 0 4 0 C6 2 6 2 6.265625 4.36328125 C6.22481492 12.06618377 5.36881946 19.42260658 4 27 C3.67 27 3.34 27 3 27 C2.875 19.375 2.875 19.375 4 16 C2.68 15.67 1.36 15.34 0 15 C0 10.05 0 5.1 0 0 Z " fill="#567A9D" transform="translate(602,336)"/>
<path d="M0 0 C0.33 0 0.66 0 1 0 C3.87179487 17.79487179 3.87179487 17.79487179 3 24 C2.34 24.66 1.68 25.32 1 26 C-0.32 26 -1.64 26 -3 26 C-3 21.05 -3 16.1 -3 11 C-2.01 11 -1.02 11 0 11 C0 7.37 0 3.74 0 0 Z " fill="#587B9E" transform="translate(605,278)"/>
<path d="M0 0 C0.66 0 1.32 0 2 0 C2.02698189 1.62490954 2.04638757 3.24994633 2.0625 4.875 C2.07410156 5.77992188 2.08570313 6.68484375 2.09765625 7.6171875 C2 10 2 10 1 12 C0.9091762 13.78731924 0.88246201 15.57805489 0.88647461 17.36767578 C0.88655014 18.48868683 0.88662567 19.60969788 0.88670349 20.76467896 C0.89186478 21.97928802 0.89702606 23.19389709 0.90234375 24.4453125 C0.9037587 25.68546112 0.90517365 26.92560974 0.90663147 28.20333862 C0.91128904 31.50118133 0.92027561 34.79897546 0.93133545 38.09680176 C0.94156269 41.46166387 0.94613191 44.82653308 0.95117188 48.19140625 C0.96221731 54.79428993 0.97896753 61.39714099 1 68 C0.67 68 0.34 68 0 68 C-1.05688985 61.09977921 -1.14512823 54.33622358 -1.1328125 47.36328125 C-1.13376923 46.16567673 -1.13472595 44.9680722 -1.13571167 43.73417664 C-1.13638966 41.21365303 -1.13456202 38.69312764 -1.13037109 36.17260742 C-1.12500334 32.31490167 -1.1303363 28.4573116 -1.13671875 24.59960938 C-1.13605818 22.14583308 -1.13477745 19.69205685 -1.1328125 17.23828125 C-1.13483673 16.08612625 -1.13686096 14.93397125 -1.13894653 13.74690247 C-1.13579437 12.6719603 -1.13264221 11.59701813 -1.12939453 10.48950195 C-1.12859894 9.54766556 -1.12780334 8.60582916 -1.12698364 7.63545227 C-0.9998823 4.99755728 -0.58646673 2.57149962 0 0 Z " fill="#98A9BA" transform="translate(34,288)"/>
<path d="M0 0 C0.33 1.32 0.66 2.64 1 4 C0.01 4 -0.98 4 -2 4 C-2 5.65 -2 7.3 -2 9 C-3.32 9 -4.64 9 -6 9 C-6 10.65 -6 12.3 -6 14 C-6.99 13.67 -7.98 13.34 -9 13 C-8.67 13.99 -8.34 14.98 -8 16 C-8.598125 16.391875 -9.19625 16.78375 -9.8125 17.1875 C-12.27838953 19.23066561 -13.46491905 21.20894373 -15 24 C-15.66 24.99 -16.32 25.98 -17 27 C-17.66 27 -18.32 27 -19 27 C-18.56754958 22.00801798 -15.94614016 18.92191725 -12.875 15.1875 C-12.38088623 14.57310059 -11.88677246 13.95870117 -11.37768555 13.32568359 C-7.70266399 8.78204235 -3.93342993 4.32274552 0 0 Z " fill="#627D98" transform="translate(105,129)"/>
<path d="M0 0 C3.3 0.33 6.6 0.66 10 1 C10 1.99 10 2.98 10 4 C10.350625 3.505 10.70125 3.01 11.0625 2.5 C13.94374289 0.26936034 16.47009026 0.80019379 20 1 C19.67 2.32 19.34 3.64 19 5 C19.61875 5.0825 20.2375 5.165 20.875 5.25 C23 6 23 6 24.25 8.0625 C24.4975 8.701875 24.745 9.34125 25 10 C21.51423718 9.38965243 18.4128077 8.48391539 15.13671875 7.15234375 C14.25048828 6.79462891 13.36425781 6.43691406 12.45117188 6.06835938 C11.53916016 5.69517578 10.62714844 5.32199219 9.6875 4.9375 C8.75615234 4.56044922 7.82480469 4.18339844 6.86523438 3.79492188 C4.57521083 2.86716875 2.28690004 1.93541999 0 1 C0 0.67 0 0.34 0 0 Z " fill="#58779A" transform="translate(202,583)"/>
<path d="M0 0 C1.15367065 -0.00095673 2.30734131 -0.00191345 3.49597168 -0.00289917 C5.93009496 -0.00357831 8.36422007 -0.00174259 10.79833984 0.00244141 C14.51794514 0.00779336 18.23742969 0.00248735 21.95703125 -0.00390625 C24.3255211 -0.00324542 26.69401087 -0.00196416 29.0625 0 C30.7267804 -0.00303635 30.7267804 -0.00303635 32.42468262 -0.00613403 C37.4009323 0.00893005 42.143386 0.0655794 47.03125 1.1328125 C47.03125 1.4628125 47.03125 1.7928125 47.03125 2.1328125 C43.73125 2.4628125 40.43125 2.7928125 37.03125 3.1328125 C37.03125 2.4728125 37.03125 1.8128125 37.03125 1.1328125 C9.80625 1.6278125 9.80625 1.6278125 -17.96875 2.1328125 C-17.96875 1.8028125 -17.96875 1.4728125 -17.96875 1.1328125 C-12.00501724 -0.1693295 -6.0706461 -0.01107541 0 0 Z " fill="#9AA9B5" transform="translate(305.96875,32.8671875)"/>
<path d="M0 0 C2.625 -0.1875 2.625 -0.1875 5 0 C5 1.32 5 2.64 5 4 C-3.88851032 9.92567354 -20.01034545 4.56918679 -30 3 C-30 2.67 -30 2.34 -30 2 C-28.47632813 2.10828125 -28.47632813 2.10828125 -26.921875 2.21875 C-20.32935634 2.67185511 -13.73177371 3.08925125 -7.125 3.25 C-6.17882812 3.27578125 -5.23265625 3.3015625 -4.2578125 3.328125 C-3.51273437 3.21984375 -2.76765625 3.1115625 -2 3 C-1.34 2.01 -0.68 1.02 0 0 Z " fill="#8AA3BB" transform="translate(299,602)"/>
<path d="M0 0 C3.55745299 4.44553565 5.52345616 9.36137787 7.75 14.5625 C8.17410156 15.52091797 8.59820313 16.47933594 9.03515625 17.46679688 C9.43089844 18.38654297 9.82664062 19.30628906 10.234375 20.25390625 C10.59756836 21.09252197 10.96076172 21.9311377 11.33496094 22.79516602 C12 25 12 25 11 28 C10.67 26.68 10.34 25.36 10 24 C9.34 24 8.68 24 8 24 C7.731875 22.9275 7.46375 21.855 7.1875 20.75 C6.11809438 17.37292962 5.18702907 15.66247018 3 13 C2.67 12.01 2.34 11.02 2 10 C1.01 9.34 0.02 8.68 -1 8 C-0.7525 7.13375 -0.7525 7.13375 -0.5 6.25 C0.14462031 3.73335631 0.14462031 3.73335631 0 0 Z " fill="#748FAA" transform="translate(579,194)"/>
<path d="M0 0 C1.32 0 2.64 0 4 0 C2.70396588 2.82868857 1.30810402 4.9701021 -0.8203125 7.234375 C-1.35527344 7.80800781 -1.89023437 8.38164062 -2.44140625 8.97265625 C-2.99699219 9.55917969 -3.55257812 10.14570312 -4.125 10.75 C-4.68832031 11.35199219 -5.25164063 11.95398438 -5.83203125 12.57421875 C-7.21724146 14.05334151 -8.6080729 15.52719641 -10 17 C-10.33 16.01 -10.66 15.02 -11 14 C-9.6875 11.8125 -9.6875 11.8125 -8 10 C-7.34 10 -6.68 10 -6 10 C-6.66 8.68 -7.32 7.36 -8 6 C-6.68 4.68 -5.36 3.36 -4 2 C-4 2.66 -4 3.32 -4 4 C-2.68 4 -1.36 4 0 4 C0 2.68 0 1.36 0 0 Z " fill="#527090" transform="translate(540,502)"/>
<path d="M0 0 C1.95273962 2.92910944 2.75396363 5.08132291 3.6875 8.4375 C3.95949219 9.38496094 4.23148438 10.33242187 4.51171875 11.30859375 C4.99803744 13.98918237 4.89369149 15.46287583 4 18 C3.67 17.34 3.34 16.68 3 16 C1.35636866 15.27840576 -0.31050386 14.60648579 -2 14 C-2.1799928 8.78020872 -1.97094808 4.92737019 0 0 Z " fill="#40678C" transform="translate(596,237)"/>
<path d="M0 0 C0.33 0 0.66 0 1 0 C0.43240789 7.00509246 -1.04653541 13.3410589 -3.0625 20.0625 C-3.34416016 21.02349609 -3.62582031 21.98449219 -3.91601562 22.97460938 C-4.60401284 25.31846429 -5.2987601 27.66007993 -6 30 C-8 27 -8 27 -8 25 C-7.34 25 -6.68 25 -6 25 C-5.96261719 24.23816406 -5.92523437 23.47632813 -5.88671875 22.69140625 C-5.46151588 16.01321999 -4.49614676 10.21681834 -2 4 C-1.34 4 -0.68 4 0 4 C0 2.68 0 1.36 0 0 Z " fill="#9BAFC2" transform="translate(601,381)"/>
<path d="M0 0 C0.66 0 1.32 0 2 0 C0.6415798 3.04332765 -0.88463024 5.12309151 -3.2578125 7.453125 C-3.88300781 8.071875 -4.50820313 8.690625 -5.15234375 9.328125 C-5.80332031 9.96234375 -6.45429687 10.5965625 -7.125 11.25 C-7.78371094 11.8996875 -8.44242188 12.549375 -9.12109375 13.21875 C-10.74296643 14.81711727 -12.3693281 16.41061897 -14 18 C-14.66 17.67 -15.32 17.34 -16 17 C-15.74438677 14.6568787 -15.40729228 12.32156597 -15 10 C-14.34 9.67 -13.68 9.34 -13 9 C-13 9.99 -13 10.98 -13 12 C-12.401875 11.34 -11.80375 10.68 -11.1875 10 C-9 8 -9 8 -6 8 C-6 7.34 -6 6.68 -6 6 C-5.34 6 -4.68 6 -4 6 C-4 5.34 -4 4.68 -4 4 C-3.34 4 -2.68 4 -2 4 C-2 3.34 -2 2.68 -2 2 C-1.34 2 -0.68 2 0 2 C0 1.34 0 0.68 0 0 Z " fill="#637C96" transform="translate(525,520)"/>
<path d="M0 0 C0.33 0.66 0.66 1.32 1 2 C0.67 2.99 0.34 3.98 0 5 C-2.97 5 -5.94 5 -9 5 C-8.67 4.01 -8.34 3.02 -8 2 C-14.435 2.495 -14.435 2.495 -21 3 C-21 2.67 -21 2.34 -21 2 C-13.90673679 0.27669093 -7.29031024 -0.2494783 0 0 Z " fill="#5D7E9C" transform="translate(288,35)"/>
<path d="M0 0 C2.66666667 0.66666667 5.33333333 1.33333333 8 2 C8 2.66 8 3.32 8 4 C8.99 4.33 9.98 4.66 11 5 C9.39850114 5.67305018 7.79368971 6.33822227 6.1875 7 C5.29417969 7.37125 4.40085937 7.7425 3.48046875 8.125 C1 9 1 9 -2 9 C-1.505 7.6078125 -1.505 7.6078125 -1 6.1875 C0.14967004 3.07970709 0.14967004 3.07970709 0 0 Z " fill="#557898" transform="translate(416,584)"/>
<path d="M0 0 C0.66 0.33 1.32 0.66 2 1 C1.3503125 1.72316406 1.3503125 1.72316406 0.6875 2.4609375 C0.130625 3.09257813 -0.42625 3.72421875 -1 4.375 C-1.556875 5.00148438 -2.11375 5.62796875 -2.6875 6.2734375 C-4.20172487 7.90389833 -4.20172487 7.90389833 -4 10 C-7 12 -7 12 -10 12 C-10.061875 12.598125 -10.12375 13.19625 -10.1875 13.8125 C-11.3361092 16.90490938 -13.14187109 17.47123338 -16 19 C-17.34631825 19.98244845 -18.68441297 20.97676564 -20 22 C-18.51346494 18.53370165 -16.54277649 16.30977964 -13.8671875 13.671875 C-12.65869141 12.47304687 -12.65869141 12.47304687 -11.42578125 11.25 C-10.58402344 10.425 -9.74226563 9.6 -8.875 8.75 C-8.02550781 7.90953125 -7.17601563 7.0690625 -6.30078125 6.203125 C-4.20495077 4.13084317 -2.10459287 2.06337607 0 0 Z " fill="#7F99B0" transform="translate(127,106)"/>
<path d="M0 0 C3.86715038 2.12246797 6.74405677 4.52746145 9.8125 7.6875 C10.60269531 8.49574219 11.39289062 9.30398437 12.20703125 10.13671875 C13.09455078 11.05904297 13.09455078 11.05904297 14 12 C10.58442084 12.9883378 8.4731482 12.73118909 5 12 C4.01 12.495 4.01 12.495 3 13 C3.66 11.35 4.32 9.7 5 8 C4.34 7.67 3.68 7.34 3 7 C1.69364726 4.69467163 0.84142926 2.52428777 0 0 Z " fill="#486A8D" transform="translate(511,105)"/>
<path d="M0 0 C1.75 0.0625 1.75 0.0625 4 1 C6.44727466 4.2161819 8 6.92394904 8 11 C8.66 11.33 9.32 11.66 10 12 C11.6875 14.9375 11.6875 14.9375 13 18 C12.67 18.66 12.34 19.32 12 20 C9.99254745 17.04666001 7.99533174 14.08653968 6 11.125 C5.42765625 10.28324219 4.8553125 9.44148438 4.265625 8.57421875 C3.72421875 7.76855469 3.1828125 6.96289062 2.625 6.1328125 C2.12226562 5.38918457 1.61953125 4.64555664 1.1015625 3.87939453 C0 2 0 2 0 0 Z " fill="#869DB3" transform="translate(74,469)"/>
<path d="M0 0 C0.99 0 1.98 0 3 0 C3 0.66 3 1.32 3 2 C4.32 2 5.64 2 7 2 C6.79375 3.093125 6.5875 4.18625 6.375 5.3125 C5.59653475 9.0838401 5.59653475 9.0838401 8 12 C7.01 13.485 7.01 13.485 6 15 C4.99539469 12.87717331 3.99644398 10.75166979 3 8.625 C2.443125 7.44164062 1.88625 6.25828125 1.3125 5.0390625 C0 2 0 2 0 0 Z " fill="#6985A3" transform="translate(55,432)"/>
<path d="M0 0 C-0.33 0.66 -0.66 1.32 -1 2 C-3.5625 2.625 -3.5625 2.625 -6 3 C-6 3.99 -6 4.98 -6 6 C-9.8063457 5.32829194 -13.35206816 4.27253436 -17 3 C-17 2.67 -17 2.34 -17 2 C-5.47835991 -0.29612756 -5.47835991 -0.29612756 0 0 Z " fill="#345981" transform="translate(395,328)"/>
<path d="M0 0 C0.83789062 0.16371094 1.67578125 0.32742188 2.5390625 0.49609375 C6.20517307 1.02987283 9.67239385 1.09743025 13.375 1.0625 C14.62023437 1.05347656 15.86546875 1.04445313 17.1484375 1.03515625 C18.08945312 1.02355469 19.03046875 1.01195312 20 1 C12.75621603 4.98651199 4.04519669 4.13533976 -4 4 C-2.68 3.34 -1.36 2.68 0 2 C0 1.34 0 0.68 0 0 Z " fill="#A4BBCC" transform="translate(344,604)"/>
<path d="M0 0 C3.78239671 0.65690619 7.21841526 1.720131 10.8125 3.0625 C11.78832031 3.42472656 12.76414062 3.78695312 13.76953125 4.16015625 C14.50558594 4.43730469 15.24164063 4.71445312 16 5 C14.02 5.99 14.02 5.99 12 7 C11.67 6.34 11.34 5.68 11 5 C8.36 5 5.72 5 3 5 C2.87625 4.360625 2.7525 3.72125 2.625 3.0625 C2.315625 2.0415625 2.315625 2.0415625 2 1 C1.34 0.67 0.68 0.34 0 0 Z " fill="#8CA4B6" transform="translate(416,49)"/>
<path d="M0 0 C0.66 0.99 1.32 1.98 2 3 C1.125 6.6875 1.125 6.6875 0 10 C-0.66 10 -1.32 10 -2 10 C-2.103125 10.639375 -2.20625 11.27875 -2.3125 11.9375 C-2.539375 12.618125 -2.76625 13.29875 -3 14 C-3.99 14.33 -4.98 14.66 -6 15 C-4.36041242 9.76727367 -2.61047965 4.84803364 0 0 Z " fill="#7C94B0" transform="translate(62,192)"/>
<path d="M0 0 C0.33 0.66 0.66 1.32 1 2 C0.28735352 3.69580078 0.28735352 3.69580078 -0.87109375 5.6953125 C-1.28037109 6.41074219 -1.68964844 7.12617188 -2.11132812 7.86328125 C-2.54896484 8.60964844 -2.98660156 9.35601562 -3.4375 10.125 C-3.87126953 10.87910156 -4.30503906 11.63320313 -4.75195312 12.41015625 C-5.82748966 14.27757134 -6.91284139 16.13932697 -8 18 C-8.33 16.68 -8.66 15.36 -9 14 C-8.34 14 -7.68 14 -7 14 C-7 12.68 -7 11.36 -7 10 C-6.34 10 -5.68 10 -5 10 C-5 8.35 -5 6.7 -5 5 C-4.01 5 -3.02 5 -2 5 C-1.34 3.35 -0.68 1.7 0 0 Z " fill="#98AEBF" transform="translate(578,448)"/>
<path d="M0 0 C-0.99 0 -1.98 0 -3 0 C-3.33 1.32 -3.66 2.64 -4 4 C-4.66 3.67 -5.32 3.34 -6 3 C-6.33 3.33 -6.66 3.66 -7 4 C-9.9375 5.625 -9.9375 5.625 -13 7 C-13.66 6.67 -14.32 6.34 -15 6 C-13.92456217 5.01216806 -12.83926783 4.03506057 -11.75 3.0625 C-11.14671875 2.51722656 -10.5434375 1.97195313 -9.921875 1.41015625 C-6.51393191 -1.09038736 -3.96505182 -1.27448094 0 0 Z " fill="#34567A" transform="translate(257,352)"/>
<path d="M0 0 C-13.6332574 3.44419134 -13.6332574 3.44419134 -20 3 C-19.01 2.67 -18.02 2.34 -17 2 C-17 1.34 -17 0.68 -17 0 C-14.9174133 -0.19561869 -12.83388144 -0.38119313 -10.75 -0.5625 C-9.58984375 -0.66691406 -8.4296875 -0.77132812 -7.234375 -0.87890625 C-4.48128523 -0.98198087 -2.580018 -0.86213473 0 0 Z " fill="#9EB1C0" transform="translate(385,602)"/>
<path d="M0 0 C2.96404505 2.80804268 5.44499019 5.18315774 7 9 C6.01 9.33 5.02 9.66 4 10 C3.34 9.34 2.68 8.68 2 8 C2.33 7.34 2.66 6.68 3 6 C2.01 6 1.02 6 0 6 C0 4.02 0 2.04 0 0 Z " fill="#5F7EA0" transform="translate(546,142)"/>
<path d="M0 0 C9.59453303 2.89066059 9.59453303 2.89066059 13 6 C12.01 6.33 11.02 6.66 10 7 C9.34 6.67 8.68 6.34 8 6 C7.01 5.9175 6.02 5.835 5 5.75 C4.01 5.5025 3.02 5.255 2 5 C0.625 2.4375 0.625 2.4375 0 0 Z " fill="#7C96AB" transform="translate(432,55)"/>
<path d="M0 0 C5.56890517 0.47986031 10.67067568 1.29915181 16 3 C14.68 3.99 13.36 4.98 12 6 C11.67 5.01 11.34 4.02 11 3 C9.741875 3.20625 8.48375 3.4125 7.1875 3.625 C3.5985242 4.21335669 3.24926122 4.16617415 0 2 C0 1.34 0 0.68 0 0 Z " fill="#8098B1" transform="translate(384,40)"/>
<path d="M0 0 C1.32 0.33 2.64 0.66 4 1 C4.33 3.31 4.66 5.62 5 8 C4.34 7.34 3.68 6.68 3 6 C2.67 7.32 2.34 8.64 2 10 C1.34 10 0.68 10 0 10 C0 6.7 0 3.4 0 0 Z " fill="#2A5481" transform="translate(234,464)"/>
<path d="M0 0 C0.33 0 0.66 0 1 0 C0.85769192 1.41702513 0.71099254 2.8336096 0.5625 4.25 C0.48128906 5.03890625 0.40007813 5.8278125 0.31640625 6.640625 C0.02365007 8.82364639 -0.42064419 10.8773182 -1 13 C-1.66 13 -2.32 13 -3 13 C-3 13.99 -3 14.98 -3 16 C-3.66 16 -4.32 16 -5 16 C-4.25749403 11.91621717 -3.17076699 7.98060777 -2 4 C-1.34 4 -0.68 4 0 4 C0 2.68 0 1.36 0 0 Z " fill="#7F95AD" transform="translate(601,381)"/>
<path d="M0 0 C0.66 0 1.32 0 2 0 C1.67 0.66 1.34 1.32 1 2 C0.67 1.34 0.34 0.68 0 0 Z M-1 1 C-0.34 1.99 0.32 2.98 1 4 C0.34 4 -0.32 4 -1 4 C-0.67 4.99 -0.34 5.98 0 7 C-5.75 5.25 -5.75 5.25 -8 3 C-5.69 2.34 -3.38 1.68 -1 1 Z " fill="#537190" transform="translate(190,570)"/>
<path d="M0 0 C0.33 0 0.66 0 1 0 C1.66 4.29 2.32 8.58 3 13 C2.34 13 1.68 13 1 13 C0.67 14.98 0.34 16.96 0 19 C-1.0625 17.1875 -1.0625 17.1875 -2 15 C-1.67 14.01 -1.34 13.02 -1 12 C-0.77674186 9.94106379 -0.59294241 7.87766347 -0.4375 5.8125 C-0.35371094 4.72582031 -0.26992188 3.63914062 -0.18359375 2.51953125 C-0.12300781 1.68808594 -0.06242187 0.85664063 0 0 Z " fill="#4F6A8D" transform="translate(476,461)"/>
<path d="M0 0 C2.64465038 3.1254959 3.84414715 6.08788267 5 10 C4.34 10 3.68 10 3 10 C3 9.34 3 8.68 3 8 C1.35 8 -0.3 8 -2 8 C-1.34 5.36 -0.68 2.72 0 0 Z " fill="#627E99" transform="translate(573,182)"/>
<path d="M0 0 C0.66 0.33 1.32 0.66 2 1 C1.505 1.4125 1.01 1.825 0.5 2.25 C-1.43386092 4.12202338 -1.43386092 4.12202338 -1 8 C-3.97 8.66 -6.94 9.32 -10 10 C-7.02911382 6.00073014 -3.87051275 3.07881696 0 0 Z " fill="#738CA4" transform="translate(139,96)"/>
<path d="M0 0 C0.66 0.66 1.32 1.32 2 2 C2.804375 1.95875 3.60875 1.9175 4.4375 1.875 C5.283125 1.91625 6.12875 1.9575 7 2 C8.66015625 4.0078125 8.66015625 4.0078125 10 6 C4.53135543 4.98408579 -0.76390013 3.92908943 -6 2 C-6 1.67 -6 1.34 -6 1 C-3.125 0.375 -3.125 0.375 0 0 Z " fill="#9AB2C1" transform="translate(233,592)"/>
<path d="M0 0 C-0.99 1.485 -0.99 1.485 -2 3 C-6.56228926 3.36792655 -10.07242087 3.61838609 -14 1 C-9.23692563 0.04738513 -4.8333472 -0.08333357 0 0 Z " fill="#375A7E" transform="translate(344,337)"/>
<path d="M0 0 C0.66 0.33 1.32 0.66 2 1 C2 1.66 2 2.32 2 3 C0.35 3.33 -1.3 3.66 -3 4 C-3.33 4.99 -3.66 5.98 -4 7 C-7.5625 8.1875 -7.5625 8.1875 -11 9 C-7.56638098 5.36440339 -4.2026393 2.63886654 0 0 Z " fill="#7E98AF" transform="translate(161,80)"/>
<path d="M0 0 C3.91211733 1.15585285 6.8745041 2.35534962 10 5 C9 6 9 6 5.9375 6.0625 C4.968125 6.041875 3.99875 6.02125 3 6 C2.01 4.02 1.02 2.04 0 0 Z " fill="#6B859F" transform="translate(447,62)"/>
<path d="M0 0 C0.33 0.66 0.66 1.32 1 2 C1.66 2.33 2.32 2.66 3 3 C-2.17578125 6.22265625 -2.17578125 6.22265625 -4 7 C-4.99 6.67 -5.98 6.34 -7 6 C-6.34 4.68 -5.68 3.36 -5 2 C-3.35 2 -1.7 2 0 2 C0 1.34 0 0.68 0 0 Z " fill="#6A869F" transform="translate(465,566)"/>
<path d="M0 0 C0.33 1.32 0.66 2.64 1 4 C0.01 4 -0.98 4 -2 4 C-2 5.65 -2 7.3 -2 9 C-3.98 9.33 -5.96 9.66 -8 10 C-7.04367001 8.70684939 -6.08486149 7.41553147 -5.125 6.125 C-4.59132813 5.40570313 -4.05765625 4.68640625 -3.5078125 3.9453125 C-2 2 -2 2 0 0 Z " fill="#6A859F" transform="translate(105,129)"/>
<path d="M0 0 C0.66 0 1.32 0 2 0 C2.05395478 1.62463842 2.09277195 3.24978541 2.125 4.875 C2.14820313 5.77992188 2.17140625 6.68484375 2.1953125 7.6171875 C2 10 2 10 0 12 C-0.76173392 7.6835078 -1.16063604 4.25566547 0 0 Z " fill="#748EA8" transform="translate(34,288)"/>
<path d="M0 0 C0 0.99 0 1.98 0 3 C-7.44230769 5.23269231 -7.44230769 5.23269231 -10.265625 4.0546875 C-10.83796875 3.70664062 -11.4103125 3.35859375 -12 3 C-10.56445975 2.49440092 -9.1264798 1.9957251 -7.6875 1.5 C-6.88699219 1.2215625 -6.08648437 0.943125 -5.26171875 0.65625 C-3 0 -3 0 0 0 Z " fill="#8299B1" transform="translate(237,45)"/>
<path d="M0 0 C-0.33 0.66 -0.66 1.32 -1 2 C-2.65 1.67 -4.3 1.34 -6 1 C-6.33 1.99 -6.66 2.98 -7 4 C-9.31 3.67 -11.62 3.34 -14 3 C-9.7368213 0.15788087 -5.03577274 -2.0143091 0 0 Z " fill="#859FB7" transform="translate(252,42)"/>
<path d="M0 0 C2.74501997 3.61186839 5.37012014 7.30395263 8 11 C6.35 11 4.7 11 3 11 C2.34 8.36 1.68 5.72 1 3 C0.34 3 -0.32 3 -1 3 C-0.67 2.01 -0.34 1.02 0 0 Z " fill="#3B597E" transform="translate(241,479)"/>
<path d="M0 0 C-0.66 0.66 -1.32 1.32 -2 2 C-1.67 2.66 -1.34 3.32 -1 4 C-2.98 4 -4.96 4 -7 4 C-7.33 2.68 -7.66 1.36 -8 0 C-4.94736336 -0.98120464 -3.05263664 -0.98120464 0 0 Z " fill="#365F85" transform="translate(327,340)"/>
<path d="M0 0 C0.33 0 0.66 0 1 0 C1.25 7.625 1.25 7.625 -1 11 C-1.66 11 -2.32 11 -3 11 C-3.33 11.66 -3.66 12.32 -4 13 C-3.27991594 8.39146203 -1.68704061 4.32762591 0 0 Z " fill="#829CB5" transform="translate(53,212)"/>
<path d="M0 0 C0.99 0.495 0.99 0.495 2 1 C2.6328125 3.06640625 2.6328125 3.06640625 3.125 5.5625 C3.29257813 6.38878906 3.46015625 7.21507812 3.6328125 8.06640625 C3.75398437 8.70449219 3.87515625 9.34257812 4 10 C3.01 10.33 2.02 10.66 1 11 C0.12132271 7.26562152 -0.08912219 3.83225427 0 0 Z " fill="#335A81" transform="translate(178,183)"/>
<path d="M0 0 C0.33 0 0.66 0 1 0 C1.33 2.31 1.66 4.62 2 7 C-0.31 7.66 -2.62 8.32 -5 9 C-3.75471468 5.55151758 -2.38532951 2.80016942 0 0 Z " fill="#6B87A2" transform="translate(83,157)"/>
<path d="M0 0 C1 2 1 2 0.375 3.9375 C-1.37329449 6.55994174 -3.25213431 7.49521641 -6 9 C-7.34631825 9.98244845 -8.68441297 10.97676564 -10 12 C-8.52278578 8.54798361 -6.56205999 6.35038064 -3.875 3.75 C-3.15054688 3.04359375 -2.42609375 2.3371875 -1.6796875 1.609375 C-1.12539062 1.07828125 -0.57109375 0.5471875 0 0 Z " fill="#90A5BB" transform="translate(117,116)"/>
<path d="M0 0 C0.66 0.33 1.32 0.66 2 1 C0.75 2.5 0.75 2.5 -1 4 C-2.32 4 -3.64 4 -5 4 C-5 4.66 -5 5.32 -5 6 C-6.98 6.33 -8.96 6.66 -11 7 C-8.84658594 4.65082102 -6.78332063 3.17556996 -3.9375 1.75 C-3.24527344 1.39421875 -2.55304688 1.0384375 -1.83984375 0.671875 C-1.23269531 0.45015625 -0.62554687 0.2284375 0 0 Z " fill="#95ABC0" transform="translate(194,61)"/>
<path d="M0 0 C11.52164009 -0.18451025 11.52164009 -0.18451025 17 1 C17 1.33 17 1.66 17 2 C13.7 2.33 10.4 2.66 7 3 C7 2.34 7 1.68 7 1 C4.69 1 2.38 1 0 1 C0 0.67 0 0.34 0 0 Z " fill="#A3B7C9" transform="translate(336,33)"/>
<path d="M0 0 C1.32 0 2.64 0 4 0 C4 1.32 4 2.64 4 4 C4.99 4 5.98 4 7 4 C7.33 5.65 7.66 7.3 8 9 C6.84775972 8.07038578 5.70340824 7.1309875 4.5625 6.1875 C3.60537109 5.40439453 3.60537109 5.40439453 2.62890625 4.60546875 C1 3 1 3 0 0 Z " fill="#66809A" transform="translate(118,524)"/>
<path d="M0 0 C1.98 0.99 1.98 0.99 4 2 C4 2.99 4 3.98 4 5 C4.66 5.33 5.32 5.66 6 6 C6 7.65 6 9.3 6 11 C2.90407165 7.4912812 1.25805377 4.50802601 0 0 Z " fill="#748FA9" transform="translate(64,451)"/>
<path d="M0 0 C0 0.99 0 1.98 0 3 C-4.62 3 -9.24 3 -14 3 C-14 2.67 -14 2.34 -14 2 C-12.04200486 1.66468585 -10.08359226 1.33180857 -8.125 1 C-6.48917969 0.7215625 -6.48917969 0.7215625 -4.8203125 0.4375 C-2 0 -2 0 0 0 Z " fill="#3D5E80" transform="translate(303,343)"/>
<path d="M0 0 C-1.4375 2 -1.4375 2 -4 4 C-7.02824418 4.35442445 -9.96485939 4.23347235 -13 4 C-4.66666667 -1.55555556 -4.66666667 -1.55555556 0 0 Z " fill="#89A2B9" transform="translate(225,50)"/>
<path d="M0 0 C1.32 0.33 2.64 0.66 4 1 C1.03716687 3.38672669 -1.94270509 5.7353371 -5 8 C-5.66 7.67 -6.32 7.34 -7 7 C-6.67 6.34 -6.34 5.68 -6 5 C-5.01 5 -4.02 5 -3 5 C-2.67 4.01 -2.34 3.02 -2 2 C-1.34 2.33 -0.68 2.66 0 3 C0 2.01 0 1.02 0 0 Z " fill="#7E95AF" transform="translate(475,560)"/>
<path d="M0 0 C0.33 1.32 0.66 2.64 1 4 C2.32 4.33 3.64 4.66 5 5 C5 6.32 5 7.64 5 9 C2.69 7.02 0.38 5.04 -2 3 C-1 1 -1 1 0 0 Z " fill="#6D88A1" transform="translate(100,502)"/>
<path d="M0 0 C2.31 0 4.62 0 7 0 C7.33 0.66 7.66 1.32 8 2 C5.03 2.66 2.06 3.32 -1 4 C-0.67 2.68 -0.34 1.36 0 0 Z " fill="#7C92A8" transform="translate(406,592)"/>
<path d="M0 0 C3.3 0.33 6.6 0.66 10 1 C10 1.99 10 2.98 10 4 C10.66 4.33 11.32 4.66 12 5 C7.61110675 4.33501617 4.0188515 2.81242323 0 1 C0 0.67 0 0.34 0 0 Z " fill="#8EA6BB" transform="translate(202,583)"/>
<path d="M0 0 C0.66 0.99 1.32 1.98 2 3 C-4.75 7 -4.75 7 -7 7 C-7 6.01 -7 5.02 -7 4 C-4.625 2.9375 -4.625 2.9375 -2 2 C-1.34 2.33 -0.68 2.66 0 3 C0 2.01 0 1.02 0 0 Z " fill="#889EB4" transform="translate(455,572)"/>
<path d="M0 0 C1.32 0 2.64 0 4 0 C4.66 2.31 5.32 4.62 6 7 C5.01 6.67 4.02 6.34 3 6 C3 5.34 3 4.68 3 4 C2.01 4.33 1.02 4.66 0 5 C0 3.35 0 1.7 0 0 Z " fill="#345B81" transform="translate(410,475)"/>
<path d="M0 0 C4.455 0.99 4.455 0.99 9 2 C8.34 2.66 7.68 3.32 7 4 C4.375 3.625 4.375 3.625 2 3 C1.67 3.66 1.34 4.32 1 5 C0.67 3.35 0.34 1.7 0 0 Z " fill="#2E547E" transform="translate(246,491)"/>
<path d="M0 0 C3.94139078 1.66751148 6.7892812 4.22710649 10 7 C9.34 7.66 8.68 8.32 8 9 C7.67 8.34 7.34 7.68 7 7 C6.195625 6.54625 5.39125 6.0925 4.5625 5.625 C1.87592252 3.92131672 1.10510897 2.91346909 0 0 Z " fill="#869CB2" transform="translate(494,91)"/>
<path d="M0 0 C0 0.99 0 1.98 0 3 C1.32 3.33 2.64 3.66 4 4 C2.58249437 3.88490339 1.16598831 3.75746342 -0.25 3.625 C-1.03890625 3.55539062 -1.8278125 3.48578125 -2.640625 3.4140625 C-5.085877 2.98492887 -6.84836903 2.21399362 -9 1 C-2.25 0 -2.25 0 0 0 Z " fill="#99B2C5" transform="translate(265,600)"/>
<path d="M0 0 C0.99 0.33 1.98 0.66 3 1 C-1.625 5.875 -1.625 5.875 -5 7 C-5 6.01 -5 5.02 -5 4 C-4.01 4 -3.02 4 -2 4 C-1.67 3.01 -1.34 2.02 -1 1 C-0.67 0.67 -0.34 0.34 0 0 Z " fill="#758EA6" transform="translate(503,540)"/>
<path d="M0 0 C0.99 0 1.98 0 3 0 C1.8141763 3.37503669 0.72426311 5.64722731 -2 8 C-2.33 6.02 -2.66 4.04 -3 2 C-2.01 2 -1.02 2 0 2 C0 1.34 0 0.68 0 0 Z " fill="#768FAC" transform="translate(566,466)"/>
<path d="M0 0 C1.485 0.99 1.485 0.99 3 2 C2.67 2.66 2.34 3.32 2 4 C2.99 4 3.98 4 5 4 C4.67 5.98 4.34 7.96 4 10 C1.7448078 7.7448078 1.02276532 5.9952413 0 3 C0 2.01 0 1.02 0 0 Z " fill="#849DB4" transform="translate(50,419)"/>
<path d="M0 0 C1.16959987 0.97566112 2.33561177 1.955625 3.5 2.9375 C4.1496875 3.48277344 4.799375 4.02804687 5.46875 4.58984375 C5.9740625 5.05519531 6.479375 5.52054687 7 6 C7 6.33 7 6.66 7 7 C5.02 7.33 3.04 7.66 1 8 C1.020625 7.236875 1.04125 6.47375 1.0625 5.6875 C1.12942841 2.89814214 1.12942841 2.89814214 0 0 Z " fill="#315476" transform="translate(208,407)"/>
<path d="M0 0 C1.46726798 3.81489674 0.43336419 6.29011622 -1 10 C-1.99 9.34 -2.98 8.68 -4 8 C-2.87548273 5.0280615 -1.77706209 2.66559313 0 0 Z " fill="#7790A9" transform="translate(77,166)"/>
<path d="M0 0 C3 0 3 0 5.125 1.75 C6.96645436 3.95974524 7.60012981 5.20090866 8 8 C7.01 7.67 6.02 7.34 5 7 C5 6.01 5 5.02 5 4 C2.525 3.01 2.525 3.01 0 2 C0 1.34 0 0.68 0 0 Z " fill="#768EA6" transform="translate(557,161)"/>
<path d="M0 0 C1.98 1.65 3.96 3.3 6 5 C5.67 5.66 5.34 6.32 5 7 C3.68 7 2.36 7 1 7 C-0.0625 5.1875 -0.0625 5.1875 -1 3 C-0.67 2.01 -0.34 1.02 0 0 Z " fill="#6B87A6" transform="translate(536,130)"/>
<path d="M0 0 C3.53600465 1.91135386 5.78972846 3.62642766 8 7 C6.35 7 4.7 7 3 7 C1.79371992 4.66785852 0.8345262 2.50357861 0 0 Z " fill="#748FA9" transform="translate(511,105)"/>
<path d="M0 0 C4.43458973 1.3937282 6.87378374 3.60582235 10 7 C8.02 6.34 6.04 5.68 4 5 C4 4.34 4 3.68 4 3 C3.01 3.33 2.02 3.66 1 4 C0.67 2.68 0.34 1.36 0 0 Z " fill="#859DB4" transform="translate(484,84)"/>
<path d="M0 0 C0.66 0.33 1.32 0.66 2 1 C2 1.99 2 2.98 2 4 C2.31088368 5.67099977 2.64080332 7.33871537 3 9 C1.68 8.34 0.36 7.68 -1 7 C-1 4.37886292 -0.68707555 2.49064888 0 0 Z " fill="#5D7E9E" transform="translate(128,528)"/>
<path d="M0 0 C0.99 0 1.98 0 3 0 C3.33 1.32 3.66 2.64 4 4 C3.34 4 2.68 4 2 4 C1.67 4.66 1.34 5.32 1 6 C0.01 4.68 -0.98 3.36 -2 2 C-1.34 1.34 -0.68 0.68 0 0 Z " fill="#355B84" transform="translate(293,438)"/>
<path d="M0 0 C0.33 0.99 0.66 1.98 1 3 C0.67 3.66 0.34 4.32 0 5 C-0.99 5 -1.98 5 -3 5 C-3.33 5.99 -3.66 6.98 -4 8 C-4.66 7.01 -5.32 6.02 -6 5 C-4.625 3.5 -4.625 3.5 -3 2 C-2.34 2 -1.68 2 -1 2 C-0.67 1.34 -0.34 0.68 0 0 Z " fill="#5C7EA1" transform="translate(591,417)"/>
<path d="M0 0 C3.99500618 1.3697164 6.80009492 3.25722422 10 6 C9.01 6.33 8.02 6.66 7 7 C6.34 6.67 5.68 6.34 5 6 C5 5.34 5 4.68 5 4 C4.360625 3.896875 3.72125 3.79375 3.0625 3.6875 C2.381875 3.460625 1.70125 3.23375 1 3 C0.67 2.01 0.34 1.02 0 0 Z " fill="#879CB1" transform="translate(469,74)"/>
<path d="M0 0 C-1.59860649 0.55786268 -3.20417905 1.09579568 -4.8125 1.625 C-5.70582031 1.92664062 -6.59914063 2.22828125 -7.51953125 2.5390625 C-10 3 -10 3 -13 1 C-11.58622218 0.63447197 -10.16879424 0.28304505 -8.75 -0.0625 C-7.96109375 -0.25972656 -7.1721875 -0.45695312 -6.359375 -0.66015625 C-3.89605178 -1.01497267 -2.34395868 -0.76877544 0 0 Z " fill="#96AEC0" transform="translate(266,39)"/>
<path d="M0 0 C6.93 0.495 6.93 0.495 14 1 C14 1.33 14 1.66 14 2 C12.41986783 2.25028811 10.83557694 2.47440946 9.25 2.6875 C7.92742187 2.87892578 7.92742187 2.87892578 6.578125 3.07421875 C4 3 4 3 0 0 Z " fill="#809AAF" transform="translate(354,35)"/>
<path d="M0 0 C1.98 0 3.96 0 6 0 C6.33 1.65 6.66 3.3 7 5 C3.34683329 3.75023244 2.21934164 3.32901247 0 0 Z " fill="#7591AD" transform="translate(144,548)"/>
<path d="M0 0 C0.66 0 1.32 0 2 0 C3.0326802 2.78823655 3.04509293 3.8677274 2.0625 6.75 C1.711875 7.4925 1.36125 8.235 1 9 C0.34 9 -0.32 9 -1 9 C-0.67 6.03 -0.34 3.06 0 0 Z " fill="#2F4F75" transform="translate(412,448)"/>
<path d="M0 0 C0.625 1.875 0.625 1.875 1 4 C0.34 4.66 -0.32 5.32 -1 6 C-1.99 6 -2.98 6 -4 6 C-4 4.68 -4 3.36 -4 2 C-2.68 2 -1.36 2 0 2 C0 1.34 0 0.68 0 0 Z " fill="#2A5582" transform="translate(202,266)"/>
<path d="M0 0 C0.33 0 0.66 0 1 0 C1 2.97 1 5.94 1 9 C0.34 9 -0.32 9 -1 9 C-1.33 9.66 -1.66 10.32 -2 11 C-1.125 3.375 -1.125 3.375 0 0 Z " fill="#96AEC1" transform="translate(43,241)"/>
<path d="M0 0 C2.67927341 4.01891012 2.15601248 6.24161923 2 11 C-0.30694043 7.53958935 -0.62056512 5.09789669 -1 1 C-0.67 0.67 -0.34 0.34 0 0 Z " fill="#35526F" transform="translate(226,186)"/>
<path d="M0 0 C2.0625 0.4375 2.0625 0.4375 4 1 C2.71937515 2.7074998 1.38232443 4.37373596 0 6 C-0.66 6 -1.32 6 -2 6 C-1.125 1.125 -1.125 1.125 0 0 Z " fill="#557391" transform="translate(88,150)"/>
<path d="M0 0 C3.77545388 1.09068668 6.47043472 1.9083091 9 5 C8.01 5.33 7.02 5.66 6 6 C5.67 5.01 5.34 4.02 5 3 C3.35 3 1.7 3 0 3 C0 2.01 0 1.02 0 0 Z " fill="#8AA1B7" transform="translate(460,69)"/>
<path d="M0 0 C3.4375 0.8125 3.4375 0.8125 7 2 C7.33 2.99 7.66 3.98 8 5 C4.62496331 3.8141763 2.35277269 2.72426311 0 0 Z " fill="#89A1B7" transform="translate(167,564)"/>
<path d="M0 0 C0.33 0 0.66 0 1 0 C1 2.64 1 5.28 1 8 C0.01 8 -0.98 8 -2 8 C-1.125 1.125 -1.125 1.125 0 0 Z " fill="#496E92" transform="translate(511,529)"/>
<path d="M0 0 C3.26954202 0.56371414 4.82575883 1.49962266 7 4 C6.67 4.99 6.34 5.98 6 7 C1.125 2.25 1.125 2.25 0 0 Z " fill="#758DA9" transform="translate(89,492)"/>
<path d="M0 0 C1.875 0.1875 1.875 0.1875 4 1 C5.25 3.5625 5.25 3.5625 6 6 C3.5625 5.25 3.5625 5.25 1 4 C0.1875 1.875 0.1875 1.875 0 0 Z " fill="#677F9D" transform="translate(74,469)"/>
<path d="M0 0 C4.75 0.75 4.75 0.75 7 3 C4.69 3.33 2.38 3.66 0 4 C0 2.68 0 1.36 0 0 Z " fill="#2C4E70" transform="translate(219,419)"/>
<path d="M0 0 C0.33 0.99 0.66 1.98 1 3 C1.99 3 2.98 3 4 3 C3.67 4.32 3.34 5.64 3 7 C3 6.34 3 5.68 3 5 C2.01 5.33 1.02 5.66 0 6 C-0.66 4.68 -1.32 3.36 -2 2 C-1.34 1.34 -0.68 0.68 0 0 Z " fill="#2E5276" transform="translate(156,175)"/>
<path d="M0 0 C0.66 0.33 1.32 0.66 2 1 C1.67 1.66 1.34 2.32 1 3 C0.34 3 -0.32 3 -1 3 C-1 3.66 -1 4.32 -1 5 C-2.65 5 -4.3 5 -6 5 C-2.25 1.125 -2.25 1.125 0 0 Z " fill="#7D93A9" transform="translate(169,75)"/>
<path d="M0 0 C0 0.66 0 1.32 0 2 C-0.99 2 -1.98 2 -3 2 C-3.33 3.32 -3.66 4.64 -4 6 C-5.32 5.34 -6.64 4.68 -8 4 C-2.25 0 -2.25 0 0 0 Z " fill="#829DB4" transform="translate(179,70)"/>
<path d="M0 0 C2.475 0.495 2.475 0.495 5 1 C5.33 2.32 5.66 3.64 6 5 C5.01 5 4.02 5 3 5 C2.87625 4.360625 2.7525 3.72125 2.625 3.0625 C2.315625 2.0415625 2.315625 2.0415625 2 1 C1.34 0.67 0.68 0.34 0 0 Z " fill="#5E7C9A" transform="translate(416,49)"/>
<path d="M0 0 C1.98 0 3.96 0 6 0 C5.01 1.485 5.01 1.485 4 3 C2.68 2.67 1.36 2.34 0 2 C-0.33 2.99 -0.66 3.98 -1 5 C-0.67 3.35 -0.34 1.7 0 0 Z " fill="#496A8C" transform="translate(503,538)"/>
<path d="M0 0 C1.32 0 2.64 0 4 0 C2.60667426 3.36720387 1.0210714 4.9859524 -2 7 C-2 6.01 -2 5.02 -2 4 C-1.34 4 -0.68 4 0 4 C0 2.68 0 1.36 0 0 Z " fill="#7E96AE" transform="translate(540,502)"/>
<path d="M0 0 C1.04449911 3.13349732 0.93423645 3.98968256 0 7 C-0.66 7 -1.32 7 -2 7 C-2.33 7.66 -2.66 8.32 -3 9 C-3 4.72290301 -2.29379749 3.44069624 0 0 Z " fill="#385976" transform="translate(473,479)"/>
<path d="M0 0 C2.64 0 5.28 0 8 0 C5.06279492 1.52299523 2.0831351 2.80100302 -1 4 C-0.67 2.68 -0.34 1.36 0 0 Z " fill="#3D5A76" transform="translate(254,434)"/>
<path d="M0 0 C1.76462683 3.08809695 2 4.23312136 2 8 C1.01 7.67 0.02 7.34 -1 7 C-0.67 4.69 -0.34 2.38 0 0 Z " fill="#809AB0" transform="translate(601,256)"/>
<path d="M0 0 C2.12046792 3.53411321 2.53199289 6.94393835 3 11 C1.5 10 1.5 10 0 8 C-0.27345479 5.28153765 -0.13491285 2.74322801 0 0 Z " fill="#A5B5C4" transform="translate(598,244)"/>
</svg>
